# xmcd
#
# Track frame offsets:
#	150
#	13642
#	30652
#	47932
#	68850
#	81090
#	100820
#	118510
#	131265
#	147622
#
# Disc length: 2282 seconds
#
# Revision: 1
# Processed by: cddbd v1.5.1PL0 Copyright (c) Steve Scherf et al.
# Submitted via: audiograbber 1.80
#
DISCID=8508e80a
DTITLE=Reba Russell Band - Going On Strong
DYEAR=1900
DGENRE=
TTITLE0=Move Over
TTITLE1=Going On Strong
TTITLE2=At The Edge
TTITLE3=Goodbye
TTITLE4=Memphis Wil  [Festive Cheeseball]
TTITLE5=Good To You Baby
TTITLE6=Child Of The 60's
TTITLE7=Candy From A Stranger
TTITLE8=Think About Me Sometimes
TTITLE9=Blue Bird Song
EXTD=
EXTT0=
EXTT1=
EXTT2=
EXTT3=
EXTT4=
EXTT5=
EXTT6=
EXTT7=
EXTT8=
EXTT9=
PLAYORDER=
